<svg viewBox="0 0 28 28" fill="none" xmlns="http://www.w3.org/2000/svg">
<path d="M12 16H2C1.43333 16 0.958333 15.8083 0.575 15.425C0.191667 15.0417 0 14.5667 0 14C0 13.4333 0.191667 12.9583 0.575 12.575C0.958333 12.1917 1.43333 12 2 12H12V2C12 1.43333 12.1917 0.958333 12.575 0.575C12.9583 0.191667 13.4333 0 14 0C14.5667 0 15.0417 0.191667 15.425 0.575C15.8083 0.958333 16 1.43333 16 2V12H26C26.5667 12 27.0417 12.1917 27.425 12.575C27.8083 12.9583 28 13.4333 28 14C28 14.5667 27.8083 15.0417 27.425 15.425C27.0417 15.8083 26.5667 16 26 16H16V26C16 26.5667 15.8083 27.0417 15.425 27.425C15.0417 27.8083 14.5667 28 14 28C13.4333 28 12.9583 27.8083 12.575 27.425C12.1917 27.0417 12 26.5667 12 26V16Z" fill="white"/>
</svg>
