<svg viewBox="0 0 21 38" fill="none" xmlns="http://www.w3.org/2000/svg">
<path d="M5.46066 19.0129L20.1894 33.7417C20.6904 34.2427 20.9325 34.8271 20.9158 35.4951C20.8991 36.1631 20.6403 36.7476 20.1393 37.2485C19.6383 37.7495 19.0539 38 18.3859 38C17.7179 38 17.1335 37.7495 16.6325 37.2485L1.20235 21.8685C0.801565 21.4677 0.500978 21.0168 0.300587 20.5159C0.100196 20.0149 0 19.5139 0 19.0129C0 18.512 0.100196 18.011 0.300587 17.51C0.500978 17.009 0.801565 16.5581 1.20235 16.1574L16.6325 0.727226C17.1335 0.226248 17.7263 -0.0158912 18.4109 0.000808029C19.0956 0.0175073 19.6884 0.276346 20.1894 0.777324C20.6904 1.2783 20.9409 1.86278 20.9409 2.53075C20.9409 3.19872 20.6904 3.78319 20.1894 4.28417L5.46066 19.0129Z" fill="#434645"/>
</svg>
