<svg viewBox="0 0 24 24" xmlns="http://www.w3.org/2000/svg"><path d="M1 12.025a1.947 1.947 0 01.85-1.625l5-3.575A1.896 1.896 0 018 6.45a1.896 1.896 0 011.15.375l5 3.575a1.94 1.94 0 01.85 1.625V19c0 .55-.196 1.02-.588 1.413A1.926 1.926 0 0113 21h-1c-.55 0-1.02-.196-1.412-.587A1.926 1.926 0 0110 19v-2.5c0-.417-.146-.77-.438-1.063A1.446 1.446 0 008.5 15h-1c-.417 0-.77.146-1.063.438A1.447 1.447 0 006 16.5V19c0 .55-.196 1.02-.588 1.413A1.926 1.926 0 014 21H3c-.55 0-1.02-.196-1.413-.587A1.926 1.926 0 011 19v-6.975zM23 5v14c0 .55-.196 1.02-.587 1.413A1.926 1.926 0 0121 21h-3a.968.968 0 01-.712-.288A.968.968 0 0117 20v-8.975c0-.333-.07-.642-.212-.925a1.833 1.833 0 00-.613-.7L10.95 5.65a2.006 2.006 0 01-.525-.6 1.4 1.4 0 01-.2-.7c0-.417.133-.746.4-.987C10.892 3.12 11.25 3 11.7 3H21c.55 0 1.02.196 1.413.587C22.803 3.98 23 4.45 23 5zm-5.5 4h1a.48.48 0 00.35-.15c.1-.1.15-.217.15-.35v-1a.48.48 0 00-.15-.35.48.48 0 00-.35-.15h-1a.48.48 0 00-.35.15.48.48 0 00-.15.35v1c0 .133.05.25.15.35.1.1.217.15.35.15zm0 4h1a.48.48 0 00.35-.15c.1-.1.15-.217.15-.35v-1a.48.48 0 00-.15-.35.48.48 0 00-.35-.15h-1a.48.48 0 00-.35.15.48.48 0 00-.15.35v1c0 .133.05.25.15.35.1.1.217.15.35.15zm0 4h1a.48.48 0 00.35-.15c.1-.1.15-.217.15-.35v-1a.48.48 0 00-.15-.35.48.48 0 00-.35-.15h-1a.48.48 0 00-.35.15.48.48 0 00-.15.35v1c0 .133.05.25.15.35.1.1.217.15.35.15z" fill-rule="evenodd"/></svg>