<svg viewBox="0 0 40 32" fill="none" xmlns="http://www.w3.org/2000/svg">
<path d="M4 32C2.9 32 1.95833 31.6083 1.175 30.825C0.391667 30.0417 0 29.1 0 28V4C0 2.9 0.391667 1.95833 1.175 1.175C1.95833 0.391667 2.9 0 4 0H36C37.1 0 38.0417 0.391667 38.825 1.175C39.6083 1.95833 40 2.9 40 4V28C40 29.1 39.6083 30.0417 38.825 30.825C38.0417 31.6083 37.1 32 36 32H4ZM4 28H36V4H4V28ZM15.2 21.8C15.5667 22.0667 15.925 22.2917 16.275 22.475C16.625 22.6583 17 22.8333 17.4 23L17.7 24.45C17.8 24.9167 18.025 25.2917 18.375 25.575C18.725 25.8583 19.1333 26 19.6 26H20.4C20.8667 26 21.275 25.85 21.625 25.55C21.975 25.25 22.2 24.8667 22.3 24.4L22.6 23C23 22.8333 23.375 22.6583 23.725 22.475C24.075 22.2917 24.4333 22.0667 24.8 21.8L26.25 22.25C26.6833 22.3833 27.1083 22.3667 27.525 22.2C27.9417 22.0333 28.2667 21.7667 28.5 21.4L28.9 20.7C29.1333 20.3 29.2167 19.8667 29.15 19.4C29.0833 18.9333 28.8667 18.55 28.5 18.25L27.4 17.3C27.4667 16.8667 27.5 16.4333 27.5 16C27.5 15.5667 27.4667 15.1333 27.4 14.7L28.5 13.75C28.8667 13.45 29.0833 13.075 29.15 12.625C29.2167 12.175 29.1333 11.75 28.9 11.35L28.45 10.6C28.2167 10.2333 27.9 9.96667 27.5 9.8C27.1 9.63333 26.6833 9.61667 26.25 9.75L24.8 10.2C24.4333 9.93333 24.075 9.70833 23.725 9.525C23.375 9.34167 23 9.16667 22.6 9L22.3 7.55C22.2 7.08333 21.975 6.70833 21.625 6.425C21.275 6.14167 20.8667 6 20.4 6H19.6C19.1333 6 18.725 6.15 18.375 6.45C18.025 6.75 17.8 7.13333 17.7 7.6L17.4 9C17 9.16667 16.625 9.34167 16.275 9.525C15.925 9.70833 15.5667 9.93333 15.2 10.2L13.75 9.75C13.3167 9.61667 12.8917 9.63333 12.475 9.8C12.0583 9.96667 11.7333 10.2333 11.5 10.6L11.1 11.3C10.8667 11.7 10.7833 12.1333 10.85 12.6C10.9167 13.0667 11.1333 13.45 11.5 13.75L12.6 14.7C12.5333 15.1333 12.5 15.5667 12.5 16C12.5 16.4333 12.5333 16.8667 12.6 17.3L11.5 18.25C11.1333 18.55 10.9167 18.925 10.85 19.375C10.7833 19.825 10.8667 20.25 11.1 20.65L11.55 21.4C11.7833 21.7667 12.1 22.0333 12.5 22.2C12.9 22.3667 13.3167 22.3833 13.75 22.25L15.2 21.8ZM20 20C18.9 20 17.9583 19.6083 17.175 18.825C16.3917 18.0417 16 17.1 16 16C16 14.9 16.3917 13.9583 17.175 13.175C17.9583 12.3917 18.9 12 20 12C21.1 12 22.0417 12.3917 22.825 13.175C23.6083 13.9583 24 14.9 24 16C24 17.1 23.6083 18.0417 22.825 18.825C22.0417 19.6083 21.1 20 20 20Z" fill="#434645"/>
</svg>
