<svg xmlns="http://www.w3.org/2000/svg" viewBox="0 0 24 24" fill="none">
  <mask id="mask0_482_3355" style="mask-type:alpha" maskUnits="userSpaceOnUse" x="0" y="0" width="24" height="24">
    <rect width="24" height="24" fill="#D9D9D9"/>
  </mask>
  <g mask="url(#mask0_482_3355)">
    <path d="M12.0004 13.4L9.08364 16.325C8.89914 16.5084 8.66439 16.6 8.37939 16.6C8.09439 16.6 7.85972 16.5084 7.67539 16.325C7.49206 16.1417 7.40039 15.9084 7.40039 15.625C7.40039 15.3417 7.49206 15.1084 7.67539 14.925L10.6004 12L7.67539 9.1083C7.49206 8.9238 7.40039 8.68905 7.40039 8.40405C7.40039 8.11905 7.49206 7.88438 7.67539 7.70005C7.85872 7.51672 8.09206 7.42505 8.37539 7.42505C8.65872 7.42505 8.89206 7.51672 9.07539 7.70005L12.0004 10.625L14.8921 7.70005C15.0766 7.51672 15.3114 7.42505 15.5964 7.42505C15.8814 7.42505 16.1161 7.51672 16.3004 7.70005C16.5004 7.90005 16.6004 8.13755 16.6004 8.41255C16.6004 8.68755 16.5004 8.91672 16.3004 9.10005L13.3754 12L16.3004 14.9168C16.4837 15.1013 16.5754 15.336 16.5754 15.621C16.5754 15.906 16.4837 16.1407 16.3004 16.325C16.1004 16.525 15.8629 16.625 15.5879 16.625C15.3129 16.625 15.0837 16.525 14.9004 16.325L12.0004 13.4Z" fill="white"/>
  </g>
</svg>