<svg viewBox="0 0 43 35" fill="none" xmlns="http://www.w3.org/2000/svg">
<path d="M11.2327 26.9885V32.9971C11.2327 33.5646 11.0408 34.0403 10.6569 34.4242C10.273 34.808 9.79733 35 9.22985 35C8.66237 35 8.18669 34.808 7.80281 34.4242C7.41893 34.0403 7.22699 33.5646 7.22699 32.9971V26.9885H5.22413C4.65665 26.9885 4.18097 26.7966 3.79709 26.4127C3.41321 26.0288 3.22127 25.5532 3.22127 24.9857C3.22127 24.4182 3.41321 23.9425 3.79709 23.5586C4.18097 23.1748 4.65665 22.9828 5.22413 22.9828H7.22699V14.671L3.22127 17.7253C2.75393 18.0591 2.25322 18.201 1.71912 18.1509C1.18503 18.1009 0.751073 17.8422 0.417263 17.3748C0.0834525 16.9075 -0.0500715 16.4068 0.0166905 15.8727C0.0834525 15.3386 0.350501 14.9046 0.817835 14.5708L18.7935 0.801144C19.1607 0.534096 19.5529 0.33381 19.9702 0.200286C20.3875 0.066762 20.8131 0 21.247 0C21.681 0 22.1066 0.066762 22.5238 0.200286C22.9411 0.33381 23.3333 0.534096 23.7005 0.801144L41.6762 14.5708C42.1101 14.9046 42.3689 15.3386 42.4523 15.8727C42.5358 16.4068 42.4106 16.9075 42.0768 17.3748C41.743 17.8422 41.309 18.1009 40.7749 18.1509C40.2408 18.201 39.7401 18.0591 39.2728 17.7253L35.267 14.671V22.9828H37.2699C37.8374 22.9828 38.3131 23.1748 38.6969 23.5586C39.0808 23.9425 39.2728 24.4182 39.2728 24.9857C39.2728 25.5532 39.0808 26.0288 38.6969 26.4127C38.3131 26.7966 37.8374 26.9885 37.2699 26.9885H35.267V32.9971C35.267 33.5646 35.0751 34.0403 34.6912 34.4242C34.3073 34.808 33.8317 35 33.2642 35C32.6967 35 32.221 34.808 31.8371 34.4242C31.4533 34.0403 31.2613 33.5646 31.2613 32.9971V26.9885H23.2499V32.9971C23.2499 33.5646 23.0579 34.0403 22.6741 34.4242C22.2902 34.808 21.8145 35 21.247 35C20.6795 35 20.2039 34.808 19.82 34.4242C19.4361 34.0403 19.2442 33.5646 19.2442 32.9971V26.9885H11.2327ZM11.2327 22.9828H19.2442V5.50787L11.2327 11.6166V22.9828ZM23.2499 22.9828H31.2613V11.6166L23.2499 5.50787V22.9828Z" fill="#434645"/>
</svg>
