<svg viewBox="0 0 44 36" fill="none" xmlns="http://www.w3.org/2000/svg">
<path d="M44 4V32C44 33.1 43.6083 34.0417 42.825 34.825C42.0417 35.6083 41.1 36 40 36H34C33.4333 36 32.9583 35.8083 32.575 35.425C32.1917 35.0417 32 34.5667 32 34C32 33.4333 32.1917 32.9583 32.575 32.575C32.9583 32.1917 33.4333 32 34 32H40V4H22V5C22 5.56667 21.8083 6.04167 21.425 6.425C21.0417 6.80833 20.5667 7 20 7C19.4333 7 18.9583 6.80833 18.575 6.425C18.1917 6.04167 18 5.56667 18 5V3.9C18 2.83333 18.3833 1.91667 19.15 1.15C19.9167 0.383333 20.8333 0 21.9 0H40C41.1 0 42.0417 0.391667 42.825 1.175C43.6083 1.95833 44 2.9 44 4ZM0 18.05C0 17.3833 0.15 16.7667 0.45 16.2C0.75 15.6333 1.16667 15.1667 1.7 14.8L11.7 7.65C12.0667 7.38333 12.4417 7.19167 12.825 7.075C13.2083 6.95833 13.6 6.9 14 6.9C14.4 6.9 14.7917 6.95833 15.175 7.075C15.5583 7.19167 15.9333 7.38333 16.3 7.65L26.3 14.8C26.8333 15.1667 27.25 15.6333 27.55 16.2C27.85 16.7667 28 17.3833 28 18.05V32C28 33.1 27.6083 34.0417 26.825 34.825C26.0417 35.6083 25.1 36 24 36H20C18.9 36 17.9583 35.6083 17.175 34.825C16.3917 34.0417 16 33.1 16 32V26H12V32C12 33.1 11.6083 34.0417 10.825 34.825C10.0417 35.6083 9.1 36 8 36H4C2.9 36 1.95833 35.6083 1.175 34.825C0.391667 34.0417 0 33.1 0 32V18.05ZM4 18V32H8V26C8 24.9 8.39167 23.9583 9.175 23.175C9.95833 22.3917 10.9 22 12 22H16C17.1 22 18.0417 22.3917 18.825 23.175C19.6083 23.9583 20 24.9 20 26V32H24V18L14 10.9L4 18ZM33 12H35C35.2667 12 35.5 11.9 35.7 11.7C35.9 11.5 36 11.2667 36 11V9C36 8.73333 35.9 8.5 35.7 8.3C35.5 8.1 35.2667 8 35 8H33C32.7333 8 32.5 8.1 32.3 8.3C32.1 8.5 32 8.73333 32 9V11C32 11.2667 32.1 11.5 32.3 11.7C32.5 11.9 32.7333 12 33 12ZM33 20H35C35.2667 20 35.5 19.9 35.7 19.7C35.9 19.5 36 19.2667 36 19V17C36 16.7333 35.9 16.5 35.7 16.3C35.5 16.1 35.2667 16 35 16H33C32.7333 16 32.5 16.1 32.3 16.3C32.1 16.5 32 16.7333 32 17V19C32 19.2667 32.1 19.5 32.3 19.7C32.5 19.9 32.7333 20 33 20ZM33 28H35C35.2667 28 35.5 27.9 35.7 27.7C35.9 27.5 36 27.2667 36 27V25C36 24.7333 35.9 24.5 35.7 24.3C35.5 24.1 35.2667 24 35 24H33C32.7333 24 32.5 24.1 32.3 24.3C32.1 24.5 32 24.7333 32 25V27C32 27.2667 32.1 27.5 32.3 27.7C32.5 27.9 32.7333 28 33 28Z" fill="#434645"/>
</svg>
