<svg viewBox="0 0 125 21" xmlns="http://www.w3.org/2000/svg"><path d="M41.51 13.088c1.552-1.245 2.48-3.33 2.48-5.58 0-2.106-.702-3.847-2.146-5.321C40.424.736 38.677 0 36.653 0h-8.51c-.87 0-1.577.758-1.577 1.69V20.7c0 .166.13.299.292.299h4.928a.295.295 0 00.292-.298V5.325h4.427c1.148 0 1.99.986 2.001 2.344a2.67 2.67 0 01-.752 1.899 2.431 2.431 0 01-1.752.752H34.1a.31.31 0 00-.258.47l6.26 10.067a.29.29 0 00.25.142h5.336c.231 0 .371-.262.245-.46l-4.597-7.31.174-.141zM54.593 10.656L49.51.175A.295.295 0 0049.242 0h-5.456a.3.3 0 00-.265.432l9.608 19.68c.277.541.84.883 1.464.887a1.623 1.623 0 001.47-.887L65.724.433A.3.3 0 0065.46 0h-5.52a.294.294 0 00-.267.175l-5.079 10.481zM22.215.136c-.64-.266-1.253-.142-1.83.38l-8.75 9.38L2.937.566C2.345.041 1.717-.13 1.076.127.414.395 0 1.018 0 1.747v18.956c0 .163.131.296.292.296h4.902a.294.294 0 00.293-.296v-9.268l5.039 5.298c.598.62 1.628.616 2.216.005l5.043-5.303v9.268c0 .163.13.296.292.296h4.902a.294.294 0 00.292-.296V1.746c0-.721-.404-1.338-1.056-1.61z" fill="#006B3F"/><path d="M93.588 20.942c-2.874 0-5.286-.921-7.234-2.763-1.948-1.841-2.921-4.382-2.921-7.621 0-3.028.902-5.544 2.709-7.55C87.948 1.004 90.43 0 93.588 0c3.197 0 5.844 1.312 7.943 3.934l-2.524 2.17c-1.513-1.87-3.32-2.806-5.419-2.806-1.967 0-3.555.67-4.766 2.01-1.21 1.34-1.815 3.09-1.815 5.25 0 2.102.614 3.813 1.844 5.134 1.23 1.32 2.808 1.981 4.737 1.981 2.137 0 3.944-.935 5.419-2.805l2.524 2.198c-2.042 2.584-4.69 3.876-7.943 3.876zM114.844 21c-3.007 0-5.456-.989-7.347-2.965-1.891-1.977-2.837-4.488-2.837-7.535 0-3.047.946-5.558 2.837-7.535C109.388.99 111.837 0 114.844 0c2.932 0 5.357.974 7.277 2.922C124.04 4.869 125 7.395 125 10.5c0 3.104-.96 5.63-2.879 7.578-1.92 1.948-4.345 2.921-7.277 2.921zm0-3.269c1.872 0 3.437-.684 4.695-2.054 1.258-1.369 1.887-3.095 1.887-5.177 0-2.102-.629-3.832-1.887-5.192-1.258-1.36-2.823-2.04-4.695-2.04-1.948 0-3.541.695-4.78 2.083-1.239 1.389-1.858 3.105-1.858 5.149s.619 3.76 1.858 5.149c1.239 1.388 2.832 2.082 4.78 2.082zM71.14 8.76c0-.414.15-.766.446-1.055.27-.274.615-.412 1.036-.412.442 0 .804.138 1.088.412.269.289.403.64.403 1.056 0 .387-.127.743-.383 1.067-.283.316-.773.62-1.47.908a4.296 4.296 0 01-.777-1.003c-.228-.331-.342-.655-.342-.972zm5.448 10.561l1.399 1.552h2.548l-2.548-3.094a9.055 9.055 0 001.15-1.595 10.97 10.97 0 00.828-1.731l-1.937-.782a8.403 8.403 0 01-1.315 2.577l-3.221-3.96c1.712-.866 2.554-2.013 2.527-3.442-.014-.965-.325-1.785-.932-2.461-.608-.676-1.43-1.02-2.465-1.035-1.029.014-1.847.36-2.455 1.035-.621.676-.932 1.496-.932 2.46 0 .521.124 1.028.373 1.521.214.5.504.968.87 1.405-1.906 1.077-2.865 2.576-2.879 4.498.014 1.295.459 2.397 1.336 3.305.849.923 1.995 1.398 3.439 1.426a5.61 5.61 0 002.247-.497 9.65 9.65 0 001.968-1.182zm-4.898-6.083l3.645 4.457c-1.042.922-2.054 1.376-3.034 1.362-.76 0-1.409-.275-1.947-.824-.553-.52-.836-1.183-.85-1.985-.013-1.127.715-2.13 2.186-3.01z" fill="#FF8B22"/></svg>