<svg viewBox="0 0 64 64" xmlns="http://www.w3.org/2000/svg"><path fill-rule="evenodd" d="M40.055 13.492c-7.323-7.323-19.241-7.323-26.564 0-7.321 7.324-7.321 19.24 0 26.564 6.521 6.519 16.678 7.217 23.996 2.127a3.954 3.954 0 001.073 1.99l10.664 10.664a3.966 3.966 0 005.612 0 3.962 3.962 0 000-5.611L44.17 38.559a3.968 3.968 0 00-1.989-1.07c5.094-7.32 4.396-17.473-2.127-23.997zm-3.956 22.607c-5.202 5.201-13.667 5.201-18.867 0-5.198-5.201-5.198-13.665 0-18.866 5.2-5.2 13.665-5.2 18.867 0 5.201 5.201 5.201 13.665 0 18.866z"/></svg>