<svg viewBox="0 0 36 44" fill="none" xmlns="http://www.w3.org/2000/svg">
<path d="M2 44C1.43333 44 0.958333 43.8083 0.575 43.425C0.191667 43.0417 0 42.5667 0 42V2C0 1.43333 0.191667 0.958333 0.575 0.575C0.958333 0.191667 1.43333 0 2 0C2.56667 0 3.04167 0.191667 3.425 0.575C3.80833 0.958333 4 1.43333 4 2V4H32V2C32 1.43333 32.1917 0.958333 32.575 0.575C32.9583 0.191667 33.4333 0 34 0C34.5667 0 35.0417 0.191667 35.425 0.575C35.8083 0.958333 36 1.43333 36 2V42C36 42.5667 35.8083 43.0417 35.425 43.425C35.0417 43.8083 34.5667 44 34 44C33.4333 44 32.9583 43.8083 32.575 43.425C32.1917 43.0417 32 42.5667 32 42V40H4V42C4 42.5667 3.80833 43.0417 3.425 43.425C3.04167 43.8083 2.56667 44 2 44ZM4 20H8V14C8 13.4333 8.19167 12.9583 8.575 12.575C8.95833 12.1917 9.43333 12 10 12H18C18.5667 12 19.0417 12.1917 19.425 12.575C19.8083 12.9583 20 13.4333 20 14V20H32V8H4V20ZM4 36H16V30C16 29.4333 16.1917 28.9583 16.575 28.575C16.9583 28.1917 17.4333 28 18 28H26C26.5667 28 27.0417 28.1917 27.425 28.575C27.8083 28.9583 28 29.4333 28 30V36H32V24H4V36ZM12 20H16V16H12V20ZM20 36H24V32H20V36Z" fill="#434645"/>
</svg>
