<svg viewBox="0 0 40 41" fill="none" xmlns="http://www.w3.org/2000/svg">
<path d="M6 36V38.5C6 39.0667 5.80833 39.5417 5.425 39.925C5.04167 40.3083 4.56667 40.5 4 40.5H2C1.43333 40.5 0.958333 40.3083 0.575 39.925C0.191667 39.5417 0 39.0667 0 38.5V34C0 33.4333 0.191667 32.9583 0.575 32.575C0.958333 32.1917 1.43333 32 2 32H38C38.5667 32 39.0417 32.1917 39.425 32.575C39.8083 32.9583 40 33.4333 40 34V38.5C40 39.0667 39.8083 39.5417 39.425 39.925C39.0417 40.3083 38.5667 40.5 38 40.5H36C35.4333 40.5 34.9583 40.3083 34.575 39.925C34.1917 39.5417 34 39.0667 34 38.5V36H23V38.5C23 39.0667 22.8083 39.5417 22.425 39.925C22.0417 40.3083 21.5667 40.5 21 40.5H19C18.4333 40.5 17.9583 40.3083 17.575 39.925C17.1917 39.5417 17 39.0667 17 38.5V36H6ZM8 28C7.43333 28 6.95833 27.8083 6.575 27.425C6.19167 27.0417 6 26.5667 6 26V2C6 1.43333 6.19167 0.958333 6.575 0.575C6.95833 0.191667 7.43333 0 8 0H32C32.5667 0 33.0417 0.191667 33.425 0.575C33.8083 0.958333 34 1.43333 34 2V26C34 26.5667 33.8083 27.0417 33.425 27.425C33.0417 27.8083 32.5667 28 32 28H8ZM10 24H30V4H10V24ZM24 12C24.5667 12 25.0417 11.8083 25.425 11.425C25.8083 11.0417 26 10.5667 26 10C26 9.43333 25.8083 8.95833 25.425 8.575C25.0417 8.19167 24.5667 8 24 8H16C15.4333 8 14.9583 8.19167 14.575 8.575C14.1917 8.95833 14 9.43333 14 10C14 10.5667 14.1917 11.0417 14.575 11.425C14.9583 11.8083 15.4333 12 16 12H24Z" fill="#434645"/>
</svg>
