<svg viewBox="0 0 35 35" fill="none" xmlns="http://www.w3.org/2000/svg">
<path d="M4.52473 34.9998C3.25644 34.9998 2.18524 34.5627 1.31114 33.6886C0.437048 32.8145 0 31.7433 0 30.475V2.29828C0 1.30421 0.462757 0.610072 1.38827 0.215872C2.31378 -0.178329 3.11932 -0.0326459 3.80489 0.65292L8.43246 5.28049L5.65592 8.05703L7.0956 9.49672L9.87215 6.72018L15.2196 12.0676L12.443 14.8441L13.8827 16.2838L16.6592 13.5073L22.0067 18.8547L19.2301 21.6312L20.6698 23.0709L23.4463 20.2944L28.7938 25.6418L26.0172 28.4183L27.4569 29.858L30.2334 27.0815L34.3468 31.1949C35.0324 31.8804 35.1781 32.686 34.7839 33.6115C34.3897 34.537 33.6956 34.9998 32.7015 34.9998H4.52473ZM6.17009 28.8297H23.2407L6.17009 11.7591V28.8297Z" fill="#434645"/>
</svg>
