<svg viewBox="0 0 32 32" fill="none" xmlns="http://www.w3.org/2000/svg"><path d="M28.821 1.043l-14.94 14.88 5.748 5.728c.122.122.19.286.19.457v4.043a.924.924 0 01-.928.925H7.935v2.57c0 .491.196.963.545 1.31.349.349.822.544 1.316.544h20.347a1.865 1.865 0 001.314-.545c.348-.348.543-.82.543-1.31V2.35A1.85 1.85 0 0030.848.64a1.869 1.869 0 00-2.027.402z" fill="url(#prefix__paint0_linear_32_586)"/><path d="M8.127 21.688l5.752-5.738L3.433 5.522A2.008 2.008 0 000 6.94v18.174a2 2 0 002.007 2.003h5.926l.004-4.975a.649.649 0 01.19-.453z" fill="url(#prefix__paint1_linear_32_586)"/><path d="M19.817 26.192v-4.049a.649.649 0 00-.19-.458l-5.749-5.738-5.75 5.74a.649.649 0 00-.19.458l-.005 4.975H18.89a.928.928 0 00.927-.928z" fill="url(#prefix__paint2_linear_32_586)"/><defs><linearGradient id="prefix__paint0_linear_32_586" x1="19.967" y1=".748" x2="19.967" y2="31.407" gradientUnits="userSpaceOnUse"><stop stop-color="#FFB81A"/><stop offset="1" stop-color="#FF8B22"/></linearGradient><linearGradient id="prefix__paint1_linear_32_586" x1="6.94" y1="5.084" x2="6.94" y2="26.938" gradientUnits="userSpaceOnUse"><stop stop-color="#82EB5C"/><stop offset="1" stop-color="#00D38D"/></linearGradient><linearGradient id="prefix__paint2_linear_32_586" x1="13.876" y1="26.572" x2="13.876" y2="15.992" gradientUnits="userSpaceOnUse"><stop offset=".002" stop-color="#079D56"/><stop offset="1" stop-color="#006B3F"/></linearGradient></defs></svg>