<svg width="40" height="40" viewBox="0 0 40 40" fill="none" xmlns="http://www.w3.org/2000/svg">
<path d="M18 22V28C18 28.5667 18.1917 29.0417 18.575 29.425C18.9583 29.8083 19.4333 30 20 30C20.5667 30 21.0417 29.8083 21.425 29.425C21.8083 29.0417 22 28.5667 22 28V22H28C28.5667 22 29.0417 21.8083 29.425 21.425C29.8083 21.0417 30 20.5667 30 20C30 19.4333 29.8083 18.9583 29.425 18.575C29.0417 18.1917 28.5667 18 28 18H22V12C22 11.4333 21.8083 10.9583 21.425 10.575C21.0417 10.1917 20.5667 10 20 10C19.4333 10 18.9583 10.1917 18.575 10.575C18.1917 10.9583 18 11.4333 18 12V18H12C11.4333 18 10.9583 18.1917 10.575 18.575C10.1917 18.9583 10 19.4333 10 20C10 20.5667 10.1917 21.0417 10.575 21.425C10.9583 21.8083 11.4333 22 12 22H18ZM20 40C17.2333 40 14.6333 39.475 12.2 38.425C9.76667 37.375 7.65 35.95 5.85 34.15C4.05 32.35 2.625 30.2333 1.575 27.8C0.525 25.3667 0 22.7667 0 20C0 17.2333 0.525 14.6333 1.575 12.2C2.625 9.76667 4.05 7.65 5.85 5.85C7.65 4.05 9.76667 2.625 12.2 1.575C14.6333 0.525 17.2333 0 20 0C22.7667 0 25.3667 0.525 27.8 1.575C30.2333 2.625 32.35 4.05 34.15 5.85C35.95 7.65 37.375 9.76667 38.425 12.2C39.475 14.6333 40 17.2333 40 20C40 22.7667 39.475 25.3667 38.425 27.8C37.375 30.2333 35.95 32.35 34.15 34.15C32.35 35.95 30.2333 37.375 27.8 38.425C25.3667 39.475 22.7667 40 20 40Z" fill="#079D56"/>
</svg>
