<svg width="13" height="13" viewBox="0 0 13 13" fill="none" xmlns="http://www.w3.org/2000/svg">
<path d="M6.49952 8.44231L2.37833 12.5752C2.11764 12.8342 1.78595 12.9637 1.38327 12.9637C0.980579 12.9637 0.64901 12.8342 0.388558 12.5752C0.129519 12.3161 0 11.9864 0 11.5861C0 11.1858 0.129519 10.8561 0.388558 10.597L4.5214 6.46419L0.388558 2.37833C0.129519 2.11764 0 1.78595 0 1.38327C0 0.980578 0.129519 0.64901 0.388558 0.388558C0.647597 0.129519 0.977282 0 1.37762 0C1.77795 0 2.10763 0.129519 2.36667 0.388558L6.49952 4.5214L10.5854 0.388558C10.8461 0.129519 11.1778 0 11.5804 0C11.9831 0 12.3147 0.129519 12.5752 0.388558C12.8577 0.671146 12.999 1.00672 12.999 1.39528C12.999 1.78383 12.8577 2.10763 12.5752 2.36667L8.44231 6.46419L12.5752 10.5854C12.8342 10.8461 12.9637 11.1778 12.9637 11.5804C12.9637 11.9831 12.8342 12.3147 12.5752 12.5752C12.2926 12.8577 11.957 12.999 11.5684 12.999C11.1799 12.999 10.8561 12.8577 10.597 12.5752L6.49952 8.44231Z" fill="white"/>
</svg>
