<svg width="40" height="40" viewBox="0 0 40 40" fill="none" xmlns="http://www.w3.org/2000/svg">
<path d="M20 40C17.2333 40 14.6333 39.475 12.2 38.425C9.76667 37.375 7.65 35.95 5.85 34.15C4.05 32.35 2.625 30.2333 1.575 27.8C0.525 25.3667 0 22.7667 0 20C0 17.2333 0.525 14.6333 1.575 12.2C2.625 9.76667 4.05 7.65 5.85 5.85C7.65 4.05 9.76667 2.625 12.2 1.575C14.6333 0.525 17.2333 0 20 0C21.6 0 23.1583 0.183333 24.675 0.55C26.1917 0.916667 27.65 1.45 29.05 2.15C29.55 2.41667 29.875 2.81667 30.025 3.35C30.175 3.88333 30.0833 4.38333 29.75 4.85C29.4167 5.31667 28.975 5.61667 28.425 5.75C27.875 5.88333 27.3333 5.81667 26.8 5.55C25.7333 5.05 24.625 4.66667 23.475 4.4C22.325 4.13333 21.1667 4 20 4C15.5667 4 11.7917 5.55833 8.675 8.675C5.55833 11.7917 4 15.5667 4 20C4 24.4333 5.55833 28.2083 8.675 31.325C11.7917 34.4417 15.5667 36 20 36C24.4333 36 28.2083 34.4417 31.325 31.325C34.4417 28.2083 36 24.4333 36 20C36 19.7333 35.9917 19.475 35.975 19.225C35.9583 18.975 35.9333 18.7167 35.9 18.45C35.8333 17.8833 35.9417 17.3417 36.225 16.825C36.5083 16.3083 36.9333 15.9667 37.5 15.8C38.0333 15.6333 38.5333 15.6833 39 15.95C39.4667 16.2167 39.7333 16.6167 39.8 17.15C39.8667 17.6167 39.9167 18.0833 39.95 18.55C39.9833 19.0167 40 19.5 40 20C40 22.7667 39.475 25.3667 38.425 27.8C37.375 30.2333 35.95 32.35 34.15 34.15C32.35 35.95 30.2333 37.375 27.8 38.425C25.3667 39.475 22.7667 40 20 40ZM17.2 23.6L35.8 4.95C36.1667 4.58333 36.625 4.39167 37.175 4.375C37.725 4.35833 38.2 4.55 38.6 4.95C38.9667 5.31667 39.15 5.78333 39.15 6.35C39.15 6.91667 38.9667 7.38333 38.6 7.75L18.6 27.8C18.2 28.2 17.7333 28.4 17.2 28.4C16.6667 28.4 16.2 28.2 15.8 27.8L10.1 22.1C9.73333 21.7333 9.55 21.2667 9.55 20.7C9.55 20.1333 9.73333 19.6667 10.1 19.3C10.4667 18.9333 10.9333 18.75 11.5 18.75C12.0667 18.75 12.5333 18.9333 12.9 19.3L17.2 23.6Z" fill="white"/>
</svg>
